<svg xmlns="http://www.w3.org/2000/svg" width="187" height="37" fill="none" viewBox="0 0 187 37"><path fill="#e7e8eb" d="M 3.8 15.04 L 0 1.5 L 1.88 0.9 L 5.04 13.02 L 8.02 2.5 L 10.4 2.5 L 13.36 13.02 L 16.5 0.96 L 18.26 1.5 L 14.48 15.04 L 12.12 15.04 L 9.16 4.52 L 6.16 15.04 L 3.8 15.04 Z M 140.82 13 L 143.48 4.54 L 145.08 5.12 L 141.78 15.04 L 139.8 15.04 L 137.4 7.3 L 134.98 15.04 L 133 15.04 L 129.72 5.12 L 131.38 4.54 L 134.06 13 L 136.5 5.38 L 138.44 5.38 L 140.82 13 Z M 111.84 0.66 L 111.3 2.18 A 7.792 7.792 0 0 0 110.578 1.849 A 8.778 8.778 0 0 0 110.4 1.78 A 2.834 2.834 0 0 0 109.676 1.616 A 3.471 3.471 0 0 0 109.34 1.6 A 2.16 2.16 0 0 0 108.734 1.681 A 1.658 1.658 0 0 0 107.99 2.13 A 1.692 1.692 0 0 0 107.601 2.804 Q 107.518 3.065 107.492 3.381 A 3.658 3.658 0 0 0 107.48 3.68 L 107.48 5.02 L 110.56 5.02 L 110.56 6.58 L 107.48 6.58 L 107.48 15.04 L 105.68 15.04 L 105.68 6.58 L 104.08 6.58 L 104.08 5.02 L 105.68 5.02 L 105.68 3.8 A 5.119 5.119 0 0 1 105.749 2.94 A 3.987 3.987 0 0 1 105.94 2.22 A 3.79 3.79 0 0 1 106.367 1.387 A 3.325 3.325 0 0 1 106.66 1.02 Q 107.12 0.52 107.78 0.26 A 3.778 3.778 0 0 1 108.908 0.011 A 4.473 4.473 0 0 1 109.22 0 Q 109.935 0 110.484 0.138 A 3.462 3.462 0 0 1 110.67 0.19 Q 111.28 0.38 111.84 0.66 Z M 47.86 10.58 L 40.58 10.58 A 4.818 4.818 0 0 0 40.808 11.585 Q 41.046 12.264 41.488 12.745 A 2.996 2.996 0 0 0 41.6 12.86 A 2.829 2.829 0 0 0 43.125 13.622 A 4.004 4.004 0 0 0 43.82 13.68 Q 44.72 13.68 45.44 13.49 Q 46.16 13.3 46.82 13 L 47.24 14.54 A 7.081 7.081 0 0 1 46.276 14.908 A 8.853 8.853 0 0 1 45.62 15.08 A 8.142 8.142 0 0 1 44.602 15.236 A 10.921 10.921 0 0 1 43.6 15.28 A 5.836 5.836 0 0 1 42.441 15.169 A 4.722 4.722 0 0 1 41.58 14.91 Q 40.68 14.54 40.05 13.85 A 4.425 4.425 0 0 1 39.321 12.75 A 5.515 5.515 0 0 1 39.08 12.15 Q 38.74 11.14 38.74 9.84 A 6.976 6.976 0 0 1 38.901 8.321 A 6.119 6.119 0 0 1 39.08 7.68 Q 39.42 6.68 40.04 5.95 Q 40.66 5.22 41.52 4.81 A 4.241 4.241 0 0 1 42.978 4.42 A 5.16 5.16 0 0 1 43.44 4.4 A 5.582 5.582 0 0 1 44.421 4.482 A 4.124 4.124 0 0 1 45.4 4.78 A 4.01 4.01 0 0 1 46.542 5.545 A 3.767 3.767 0 0 1 46.8 5.82 A 4.389 4.389 0 0 1 47.599 7.237 A 5.042 5.042 0 0 1 47.64 7.36 A 6.07 6.07 0 0 1 47.919 9.128 A 6.812 6.812 0 0 1 47.92 9.22 A 15.041 15.041 0 0 1 47.862 10.559 A 14.117 14.117 0 0 1 47.86 10.58 Z M 94.54 10.58 L 87.26 10.58 A 4.818 4.818 0 0 0 87.488 11.585 Q 87.726 12.264 88.168 12.745 A 2.996 2.996 0 0 0 88.28 12.86 A 2.829 2.829 0 0 0 89.805 13.622 A 4.004 4.004 0 0 0 90.5 13.68 Q 91.4 13.68 92.12 13.49 Q 92.84 13.3 93.5 13 L 93.92 14.54 A 7.081 7.081 0 0 1 92.956 14.908 A 8.853 8.853 0 0 1 92.3 15.08 A 8.142 8.142 0 0 1 91.282 15.236 A 10.921 10.921 0 0 1 90.28 15.28 A 5.836 5.836 0 0 1 89.121 15.169 A 4.722 4.722 0 0 1 88.26 14.91 Q 87.36 14.54 86.73 13.85 A 4.425 4.425 0 0 1 86.001 12.75 A 5.515 5.515 0 0 1 85.76 12.15 Q 85.42 11.14 85.42 9.84 A 6.976 6.976 0 0 1 85.581 8.321 A 6.119 6.119 0 0 1 85.76 7.68 Q 86.1 6.68 86.72 5.95 Q 87.34 5.22 88.2 4.81 A 4.241 4.241 0 0 1 89.658 4.42 A 5.16 5.16 0 0 1 90.12 4.4 A 5.582 5.582 0 0 1 91.101 4.482 A 4.124 4.124 0 0 1 92.08 4.78 A 4.01 4.01 0 0 1 93.222 5.545 A 3.767 3.767 0 0 1 93.48 5.82 A 4.389 4.389 0 0 1 94.279 7.237 A 5.042 5.042 0 0 1 94.32 7.36 A 6.07 6.07 0 0 1 94.599 9.128 A 6.812 6.812 0 0 1 94.6 9.22 A 15.041 15.041 0 0 1 94.542 10.559 A 14.117 14.117 0 0 1 94.54 10.58 Z M 78.64 15.04 L 74.46 5.12 L 76.1 4.44 L 79.64 13 L 83.18 4.44 L 84.72 5.12 L 80.52 15.04 L 78.64 15.04 Z M 32.34 5.02 L 32.72 1.74 L 34.1 1.74 L 34.1 5.02 L 36.98 5.02 L 36.98 6.58 L 34.1 6.58 L 34.1 11.6 A 4.335 4.335 0 0 0 34.118 12.01 Q 34.149 12.33 34.23 12.58 A 2.192 2.192 0 0 0 34.35 12.879 Q 34.429 13.037 34.528 13.16 A 1.256 1.256 0 0 0 34.58 13.22 Q 34.8 13.46 35.11 13.57 Q 35.42 13.68 35.76 13.68 Q 36.26 13.68 36.7 13.52 Q 37.14 13.36 37.54 13.14 L 38.04 14.58 A 3.709 3.709 0 0 1 37.716 14.751 Q 37.556 14.827 37.367 14.902 A 8.673 8.673 0 0 1 36.96 15.05 Q 36.28 15.28 35.54 15.28 A 3.7 3.7 0 0 1 34.504 15.142 A 2.79 2.79 0 0 1 33.17 14.3 A 3.157 3.157 0 0 1 32.535 13.155 Q 32.3 12.426 32.3 11.46 L 32.3 6.58 L 30.5 6.58 L 30.5 5.02 L 32.34 5.02 Z M 26.68 5.48 L 26.68 4.64 L 28.32 4.64 L 28.32 12.52 A 2.43 2.43 0 0 0 28.34 12.847 Q 28.407 13.334 28.69 13.51 Q 29.06 13.74 29.5 13.74 L 29.12 15.14 A 4.683 4.683 0 0 1 29.09 15.14 Q 27.219 15.128 26.809 13.616 A 2.755 2.755 0 0 1 26.8 13.58 Q 26.56 13.9 26.25 14.21 A 3.641 3.641 0 0 1 25.591 14.729 A 4.058 4.058 0 0 1 25.54 14.76 A 3.492 3.492 0 0 1 24.913 15.053 A 4.141 4.141 0 0 1 24.64 15.14 A 3.753 3.753 0 0 1 23.976 15.26 A 4.691 4.691 0 0 1 23.54 15.28 Q 22.56 15.28 21.71 14.9 Q 20.86 14.52 20.23 13.82 A 4.978 4.978 0 0 1 19.459 12.664 A 6.041 6.041 0 0 1 19.23 12.13 Q 18.86 11.14 18.86 9.9 A 6.611 6.611 0 0 1 19.061 8.248 A 5.968 5.968 0 0 1 19.22 7.73 Q 19.58 6.72 20.23 5.98 Q 20.88 5.24 21.79 4.82 A 4.625 4.625 0 0 1 23.546 4.405 A 5.416 5.416 0 0 1 23.78 4.4 A 4.517 4.517 0 0 1 24.739 4.498 A 3.741 3.741 0 0 1 25.41 4.71 A 5.2 5.2 0 0 1 26.267 5.169 A 4.421 4.421 0 0 1 26.68 5.48 Z M 114.14 0.24 L 114.14 11.6 Q 114.14 12.68 114.59 13.2 A 1.473 1.473 0 0 0 115.507 13.695 A 2.145 2.145 0 0 0 115.84 13.72 Q 116.22 13.72 116.58 13.63 Q 116.94 13.54 117.22 13.42 L 117.66 14.88 Q 117.38 15.004 116.998 15.105 A 6.996 6.996 0 0 1 116.77 15.16 A 4.763 4.763 0 0 1 116.139 15.257 A 6.103 6.103 0 0 1 115.6 15.28 A 4.284 4.284 0 0 1 114.778 15.204 A 3.612 3.612 0 0 1 114.31 15.08 Q 113.72 14.88 113.28 14.46 A 2.656 2.656 0 0 1 112.784 13.805 A 3.399 3.399 0 0 1 112.59 13.38 A 3.578 3.578 0 0 1 112.415 12.724 Q 112.34 12.294 112.34 11.78 L 112.34 0.24 L 114.14 0.24 Z M 56.5 4.52 L 55.96 6.38 Q 55.597 6.227 55.107 6.22 A 3.318 3.318 0 0 0 55.06 6.22 Q 54.5 6.22 53.97 6.46 A 2.64 2.64 0 0 0 53.148 7.05 A 3.118 3.118 0 0 0 53.03 7.18 A 3.107 3.107 0 0 0 52.645 7.757 Q 52.499 8.034 52.385 8.366 A 5.208 5.208 0 0 0 52.37 8.41 Q 52.145 9.085 52.122 9.98 A 8 8 0 0 0 52.12 10.18 L 52.12 15.04 L 50.32 15.04 L 50.32 4.64 L 52.06 4.64 L 52.06 6.9 Q 52.24 6.42 52.54 5.96 Q 52.84 5.5 53.25 5.16 A 3.335 3.335 0 0 1 54.018 4.686 A 3.864 3.864 0 0 1 54.2 4.61 A 3.089 3.089 0 0 1 54.999 4.421 A 3.822 3.822 0 0 1 55.4 4.4 Q 55.7 4.4 55.99 4.43 Q 56.249 4.457 56.453 4.508 A 2.289 2.289 0 0 1 56.5 4.52 Z M 103.18 4.52 L 102.64 6.38 Q 102.277 6.227 101.787 6.22 A 3.318 3.318 0 0 0 101.74 6.22 Q 101.18 6.22 100.65 6.46 A 2.64 2.64 0 0 0 99.828 7.05 A 3.118 3.118 0 0 0 99.71 7.18 A 3.107 3.107 0 0 0 99.325 7.757 Q 99.179 8.034 99.065 8.366 A 5.208 5.208 0 0 0 99.05 8.41 Q 98.825 9.085 98.802 9.98 A 8 8 0 0 0 98.8 10.18 L 98.8 15.04 L 97 15.04 L 97 4.64 L 98.74 4.64 L 98.74 6.9 Q 98.92 6.42 99.22 5.96 Q 99.52 5.5 99.93 5.16 A 3.335 3.335 0 0 1 100.698 4.686 A 3.864 3.864 0 0 1 100.88 4.61 A 3.089 3.089 0 0 1 101.679 4.421 A 3.822 3.822 0 0 1 102.08 4.4 Q 102.38 4.4 102.67 4.43 Q 102.929 4.457 103.133 4.508 A 2.289 2.289 0 0 1 103.18 4.52 Z M 63.613 8.572 A 6.839 6.839 0 0 0 63.5 9.84 A 6.941 6.941 0 0 0 63.526 10.445 A 5.744 5.744 0 0 0 63.89 12.04 A 5.89 5.89 0 0 0 63.992 12.286 A 5.087 5.087 0 0 0 64.97 13.76 Q 65.66 14.48 66.61 14.88 A 4.93 4.93 0 0 0 67.22 15.091 A 5.498 5.498 0 0 0 68.68 15.28 A 6.09 6.09 0 0 0 68.885 15.277 A 5.286 5.286 0 0 0 70.73 14.89 Q 71.68 14.5 72.38 13.78 A 4.765 4.765 0 0 0 72.749 13.352 A 5.232 5.232 0 0 0 73.47 12.05 A 5.563 5.563 0 0 0 73.737 11.122 A 6.815 6.815 0 0 0 73.86 9.8 Q 73.86 8.56 73.46 7.56 A 5.743 5.743 0 0 0 73.328 7.255 A 4.884 4.884 0 0 0 72.36 5.86 Q 71.66 5.16 70.71 4.78 A 5.212 5.212 0 0 0 70.591 4.734 A 5.438 5.438 0 0 0 68.68 4.4 A 6.231 6.231 0 0 0 68.441 4.405 A 5.396 5.396 0 0 0 66.63 4.78 Q 65.68 5.16 64.99 5.86 A 4.653 4.653 0 0 0 64.513 6.429 A 5.361 5.361 0 0 0 63.9 7.57 A 5.462 5.462 0 0 0 63.613 8.572 Z M 118.373 8.572 A 6.839 6.839 0 0 0 118.26 9.84 A 6.941 6.941 0 0 0 118.286 10.445 A 5.744 5.744 0 0 0 118.65 12.04 A 5.89 5.89 0 0 0 118.752 12.286 A 5.087 5.087 0 0 0 119.73 13.76 Q 120.42 14.48 121.37 14.88 A 4.93 4.93 0 0 0 121.98 15.091 A 5.498 5.498 0 0 0 123.44 15.28 A 6.09 6.09 0 0 0 123.645 15.277 A 5.286 5.286 0 0 0 125.49 14.89 Q 126.44 14.5 127.14 13.78 A 4.765 4.765 0 0 0 127.509 13.352 A 5.232 5.232 0 0 0 128.23 12.05 A 5.563 5.563 0 0 0 128.497 11.122 A 6.815 6.815 0 0 0 128.62 9.8 Q 128.62 8.56 128.22 7.56 A 5.743 5.743 0 0 0 128.088 7.255 A 4.884 4.884 0 0 0 127.12 5.86 Q 126.42 5.16 125.47 4.78 A 5.212 5.212 0 0 0 125.351 4.734 A 5.438 5.438 0 0 0 123.44 4.4 A 6.231 6.231 0 0 0 123.201 4.405 A 5.396 5.396 0 0 0 121.39 4.78 Q 120.44 5.16 119.75 5.86 A 4.653 4.653 0 0 0 119.273 6.429 A 5.361 5.361 0 0 0 118.66 7.57 A 5.462 5.462 0 0 0 118.373 8.572 Z M 72.02 9.84 Q 72.02 9.06 71.77 8.36 A 3.913 3.913 0 0 0 71.295 7.429 A 3.543 3.543 0 0 0 71.07 7.14 Q 70.62 6.62 70.01 6.31 Q 69.4 6 68.68 6 A 3.85 3.85 0 0 0 67.635 6.134 A 2.807 2.807 0 0 0 66.22 7.04 A 3.576 3.576 0 0 0 65.485 8.515 Q 65.354 9.046 65.341 9.67 A 6.574 6.574 0 0 0 65.34 9.8 Q 65.34 10.58 65.59 11.29 A 4.026 4.026 0 0 0 66.053 12.218 A 3.63 3.63 0 0 0 66.29 12.53 Q 66.74 13.06 67.35 13.37 Q 67.96 13.68 68.68 13.68 Q 69.46 13.68 70.08 13.4 Q 70.7 13.12 71.13 12.61 A 3.473 3.473 0 0 0 71.68 11.697 A 4.14 4.14 0 0 0 71.79 11.4 A 4.56 4.56 0 0 0 71.987 10.469 A 5.801 5.801 0 0 0 72.02 9.84 Z M 126.78 9.84 Q 126.78 9.06 126.53 8.36 A 3.913 3.913 0 0 0 126.055 7.429 A 3.543 3.543 0 0 0 125.83 7.14 Q 125.38 6.62 124.77 6.31 Q 124.16 6 123.44 6 A 3.85 3.85 0 0 0 122.395 6.134 A 2.807 2.807 0 0 0 120.98 7.04 A 3.576 3.576 0 0 0 120.245 8.515 Q 120.114 9.046 120.101 9.67 A 6.574 6.574 0 0 0 120.1 9.8 Q 120.1 10.58 120.35 11.29 A 4.026 4.026 0 0 0 120.813 12.218 A 3.63 3.63 0 0 0 121.05 12.53 Q 121.5 13.06 122.11 13.37 Q 122.72 13.68 123.44 13.68 Q 124.22 13.68 124.84 13.4 Q 125.46 13.12 125.89 12.61 A 3.473 3.473 0 0 0 126.44 11.697 A 4.14 4.14 0 0 0 126.55 11.4 A 4.56 4.56 0 0 0 126.747 10.469 A 5.801 5.801 0 0 0 126.78 9.84 Z M 26.52 12.38 L 26.52 6.8 Q 25.98 6.42 25.33 6.19 Q 24.68 5.96 23.96 5.96 A 3.228 3.228 0 0 0 23.067 6.081 A 2.89 2.89 0 0 0 22.64 6.24 Q 22.04 6.52 21.61 7.03 A 3.479 3.479 0 0 0 21.109 7.831 A 4.3 4.3 0 0 0 20.94 8.26 A 4.685 4.685 0 0 0 20.723 9.316 A 5.724 5.724 0 0 0 20.7 9.84 A 5.145 5.145 0 0 0 20.794 10.839 A 4.356 4.356 0 0 0 20.94 11.39 A 3.857 3.857 0 0 0 21.315 12.195 A 3.309 3.309 0 0 0 21.62 12.61 Q 22.06 13.12 22.65 13.4 A 2.936 2.936 0 0 0 23.81 13.678 A 3.425 3.425 0 0 0 23.94 13.68 Q 24.7 13.68 25.38 13.32 Q 26.06 12.96 26.52 12.38 Z M 40.56 9.12 L 46.26 9.12 Q 46.26 8.016 45.859 7.281 A 2.484 2.484 0 0 0 45.5 6.78 A 2.498 2.498 0 0 0 44.108 6.025 A 3.679 3.679 0 0 0 43.4 5.96 A 2.838 2.838 0 0 0 42.45 6.113 A 2.444 2.444 0 0 0 41.47 6.76 A 2.948 2.948 0 0 0 40.911 7.641 Q 40.746 8.032 40.65 8.512 A 6.457 6.457 0 0 0 40.56 9.12 Z M 87.24 9.12 L 92.94 9.12 Q 92.94 8.016 92.539 7.281 A 2.484 2.484 0 0 0 92.18 6.78 A 2.498 2.498 0 0 0 90.788 6.025 A 3.679 3.679 0 0 0 90.08 5.96 A 2.838 2.838 0 0 0 89.13 6.113 A 2.444 2.444 0 0 0 88.15 6.76 A 2.948 2.948 0 0 0 87.591 7.641 Q 87.426 8.032 87.33 8.512 A 6.457 6.457 0 0 0 87.24 9.12 Z"/><path fill="#BCBBBB" d="M26 33V24H30V37H0V24H4V33H26Z"/><path fill="#F48024" d=""/></svg>